<svg width="666" height="220" viewBox="0 0 666 220" fill="none" xmlns="http://www.w3.org/2000/svg">
<path d="M1 157.333C4.50739 153.332 8.08098 149.724 11.4961 145.972C13.3935 143.888 14.7058 143.593 17.2343 145.56C27.1462 153.274 38.2403 157.881 51.1407 157.012C63.2658 156.195 73.1432 148.385 74.8654 135.254C75.1796 132.859 74.2624 130.047 73.1853 127.773C70.0119 121.072 65.329 115.651 59.6254 110.72C50.0614 102.452 41.1071 93.4605 32.1263 84.5418C26.3021 78.7579 26.201 71.0854 27.2451 63.7546C30.0894 43.7854 48.8586 30.702 65.0928 27.8445C77.9264 25.5856 89.6948 28.3256 101.415 32.7851C102.901 33.3505 104.369 33.9637 106.036 34.6311C104.661 42.1693 103.711 49.7799 101.592 57.0499C101.15 58.5673 96.3915 58.8268 93.1509 59.8088C95.3904 46.419 86.7168 38.031 74.4448 36.8586C66.2653 36.0772 59.2599 37.3847 52.7154 42.5908C42.3761 50.8155 41.4982 63.7216 50.3284 72.6478C60.5563 82.987 71.5729 92.5408 82.0712 102.619C99.9916 119.822 93.7461 140.461 77.5543 153.751C62.83 165.837 45.2804 168.7 27.1403 166.701C18.5004 165.75 10.2047 161.673 1.37657 159.006C0.999999 158.556 0.999999 158.111 1 157.333Z" fill="#0073BA"/>
<path d="M157.326 151.3C158.159 145.504 158.75 140.075 159.362 134.46C152.256 142.5 145.813 150.272 138.83 157.524C133.867 162.678 127.498 165.594 120.166 166.006C109.209 166.622 103.572 158.253 103.008 149.295C101.795 130.052 109.124 114.158 121.511 99.8329C134.01 85.3772 149.387 78.3898 168.405 78.9674C175.113 79.1711 181.833 79 189.661 79C188.154 85.8479 186.916 91.1431 185.829 96.469C182.519 112.682 179.266 128.907 175.998 145.128C175.933 145.451 175.933 145.792 175.939 146.124C175.985 148.92 176.039 151.717 176.091 154.513C179.118 153.78 182.682 153.812 185.055 152.147C189.475 149.047 193.205 144.963 197.214 141.28C198.493 140.105 199.746 138.9 201.413 137.33C202.286 150.478 192.885 155.396 184.683 160.935C181.682 162.962 177.947 164.027 174.421 165.126C164.904 168.091 156.873 164.251 157.326 151.3ZM127.388 151.999C129.031 151.382 131.071 151.187 132.249 150.077C137.863 144.785 143.746 139.656 148.598 133.707C158.342 121.759 167.811 109.475 168.312 92.2797C164.886 91.3142 161.223 90.1757 157.505 89.2559C149.347 87.2376 140.253 90.2853 136.059 97.4526C131.835 104.674 127.808 112.214 125.189 120.111C122.765 127.42 121.749 135.35 121.281 143.078C121.093 146.166 120.793 151.461 127.388 151.999Z" fill="#0073BA"/>
<path d="M431.162 79.9999C438.956 79.9999 446.268 79.9999 453.657 79.9999C451.485 86.5167 446.615 88.9701 440.004 88.1692C434.93 87.5545 429.722 88.0468 424.113 88.0468C422.394 97.7305 420.779 107.304 418.983 116.844C415.146 137.234 414 158.238 405.936 177.681C397.261 198.597 379.735 214.716 354.826 213.983C350.289 213.85 345.759 213.498 340.692 213.217C345.67 208.702 350.02 204.756 354.898 200.331C357.935 200.724 362.854 201.522 367.804 201.967C378.803 202.955 384.806 196.812 387.553 188.536C390.498 179.662 392.179 170.33 393.936 161.107C396.341 148.482 398.305 135.773 400.443 123.098C402.386 111.586 404.309 100.07 406.318 88.0901C400.258 88.0901 394.823 88.0901 389.258 88.0901C391.651 81.5167 394.251 80.3694 407.657 79.848C411.282 63.8068 418.834 49.9443 432.536 39.9692C446.572 29.7519 462.188 28.1528 477.891 31.0419C473.781 35.1097 469.401 39.4448 465.32 43.4844C460.462 42.7569 454.612 41.5912 448.705 41.0742C442.227 40.5072 437.302 44.4175 434.513 49.3611C429.313 58.5779 427.344 69.0033 425.778 79.7774C427.751 79.867 429.215 79.9334 431.162 79.9999Z" fill="#0073BA"/>
<path d="M552.356 138.151C553.147 137.572 553.66 137.238 554.27 136.841C555.223 146.033 549.872 151.184 543.535 156.084C537.39 160.836 530.973 164.938 523.207 165.919C511.557 167.39 507.799 159.087 509.42 149.393C512.205 132.735 515.85 116.223 518.975 99.6202C522.108 82.9721 525.396 66.4532 535.888 52.4107C546.355 38.4034 559.714 29.9639 577.616 30.0428C583.261 30.0677 588.903 30.5966 594.909 30.914C590.054 35.6533 585.97 39.6403 581.89 43.6228C577.205 42.7588 571.491 40.8354 565.778 40.8355C554.438 40.8357 548.881 48.9706 546.189 58.4455C542.163 72.6146 539.149 87.0839 536.054 101.501C533.054 115.477 530.497 129.548 527.741 143.577C527.212 146.269 526.495 148.936 526.168 151.651C525.85 154.296 528.878 156.04 531.787 154.592C534.816 153.085 537.731 151.194 540.341 149.041C544.411 145.684 548.181 141.963 552.356 138.151Z" fill="#0073BA"/>
<path d="M592.958 44.8849C607.629 30.8021 624.749 26.5745 645.681 32.7111C641.566 36.5176 638.04 40.1596 634.052 43.1948C633.078 43.9364 630.55 42.8288 628.804 42.3336C619.364 39.6566 609.843 38.5261 602.801 46.8928C598.968 51.4474 595.727 57.1976 594.277 62.9292C589.981 79.9102 586.514 97.1114 583.103 114.302C580.761 126.101 578.987 138.016 577.147 149.908C576.922 151.361 577.578 154.138 578.314 154.32C580.172 154.778 582.815 154.802 584.246 153.763C590.067 149.543 595.597 144.912 601.12 140.297C602.208 139.387 602.792 137.874 604.18 137.104C604.784 143.014 604.383 147.552 599.201 151.729C592.515 157.12 586.13 162.604 577.759 164.97C562.754 169.211 558.052 159.482 560.377 147.327C563.366 131.701 567.335 116.243 569.789 100.542C571.708 88.2642 574.431 76.3244 579.149 64.893C580.799 60.8946 583.596 57.3694 586.194 53.2129C586.737 52.6344 586.893 52.4241 586.984 52.1667C587.955 51.3095 588.926 50.4523 590.362 49.2358C591.537 47.5459 592.248 46.2154 592.958 44.8849Z" fill="#0073BA"/>
<path d="M211.19 161.679C206.207 154.615 207.928 147.078 209.199 140.014C212.303 122.757 216.157 105.635 219.79 88.0669C213.837 88.0669 208.113 88.0669 200.911 88.0669C204.917 83.9239 206.732 79.241 212.692 79.9729C214.169 80.1542 215.706 79.8456 217.182 80.0319C220.28 80.423 221.566 79.0653 222.048 76.0699C222.847 71.1099 223.823 66.1606 225.109 61.3088C225.452 60.0135 227.018 58.4835 228.325 58.1035C232.947 56.7601 237.7 55.8686 243.554 54.5457C241.901 63.4467 240.409 71.4834 238.859 79.8296C248.619 79.8296 257.916 79.8296 267.34 79.8296C263.747 86.7953 260.185 88.585 253.028 88.0755C247.905 87.7109 242.735 88.0047 237.161 88.0047C234.754 99.8825 232.296 111.593 230.03 123.341C228.49 131.324 227.246 139.364 225.821 147.369C224.824 152.97 227.566 155.744 232.81 153.492C238.406 151.089 243.538 147.607 248.879 144.607C249.289 144.377 249.745 144.231 250.613 143.862C251.081 147.804 252.319 151.229 248.328 154.303C240.349 160.447 232.238 166.335 221.645 165.815C218.193 165.646 214.848 163.311 211.19 161.679Z" fill="#0073BA"/>
<path d="M350.414 81.2341C360.017 76.8909 369.44 77.2082 378.941 80.0463C381.479 80.8044 382.506 81.9899 381.581 85.0661C380.184 89.7132 379.61 94.6077 378.626 99.7093C376.259 99.7093 373.717 99.7093 371.129 99.7093C372.411 92.0947 369.936 87.725 363.519 87.0956C355.104 86.2701 346.592 88.0153 346.968 96.6905C347.133 100.496 349.242 104.64 351.559 107.841C356.156 114.194 361.858 119.746 366.481 126.083C376.31 139.556 370.538 151.138 359.125 158.816C344.217 168.845 328.268 167.657 310.99 160.043C312.493 159.212 313.529 158.875 314.248 158.2C317.398 155.245 320.048 150.592 323.673 149.669C326.696 148.899 330.804 152.503 334.465 154.09C339.752 156.383 345.176 156.865 350.614 154.733C357.331 152.1 359.556 145.636 355.262 139.913C350.451 133.502 345.359 127.234 339.819 121.45C325.734 106.744 332.845 90.8191 347.912 82.561C348.624 82.1704 349.351 81.8045 350.414 81.2341Z" fill="#0073BA"/>
<path d="M267.363 96.5552C266.209 91.7963 268.125 89.9551 272.46 88.6887C283.329 85.5137 293.994 81.6425 304.755 78.0939C305.312 77.9105 306.001 78.1319 307.186 78.1942C305.248 86.3161 303.194 94.0906 301.559 101.953C298.255 117.851 295.098 133.781 292.059 149.731C291.149 154.504 293.738 156.517 298.076 154.287C301.651 152.449 304.995 149.986 308.041 147.34C311.642 144.211 314.813 140.586 319.203 136.129C318.398 142.741 318.743 147.878 313.836 151.802C306.956 157.302 300.449 162.988 291.501 165.278C282.873 167.487 273.39 164.012 275.045 152.796C276.659 141.859 278.614 130.972 280.472 120.072C281.591 113.508 283.073 106.994 283.864 100.394C284.201 97.5862 283.027 94.5995 279.138 95.042C275.283 95.4806 271.466 96.2566 267.363 96.5552Z" fill="#0073BA"/>
<path d="M491.043 79.1126C489.674 86.7914 488.439 94.4972 486.908 102.143C483.703 118.142 480.298 134.1 477.078 150.095C476.32 153.857 479.26 156.498 482.636 154.528C488.164 151.301 493.09 147.043 499.001 143.101C500.862 143.001 501.991 143.019 503.121 143.037C503.707 146.768 501.569 149.073 499.107 151.463C492.386 157.987 485.028 163.34 475.774 165.676C469.133 167.352 463.358 164.842 460.723 158.353C461.49 153.93 461.754 150.017 462.473 146.19C465.182 131.767 468.094 117.382 470.738 102.947C470.954 101.767 469.725 100.323 469.167 99.0008C468.066 92.5783 463.161 95.364 459.641 95.2701C458.041 95.2275 456.41 96.3608 454.397 96.5005C454.32 93.9886 454.639 91.9367 454.958 89.8848C466.716 85.9354 478.473 81.9861 490.621 78.3381C491.012 78.6396 491.043 79.1126 491.043 79.1126Z" fill="#0073BA"/>
<path d="M299.001 48.9996C309.204 42.4682 319.041 35.9906 328.878 29.5129C329.276 29.8284 329.674 30.1438 330.072 30.4593C325.712 39.4694 321.387 48.4966 316.943 57.4651C316.461 58.438 315.419 59.3171 314.424 59.8246C301.88 66.2266 289.298 72.5522 275.476 79.5273C279.279 71.8423 282.105 64.8503 286.095 58.6006C288.108 55.4473 292.216 53.6233 295.401 51.231C296.439 50.4517 297.555 49.7763 299.001 48.9996Z" fill="#00A850"/>
<path d="M490.761 44.7432C498.733 39.5319 506.44 34.5795 514.146 29.6272C514.476 29.9145 514.805 30.2018 515.135 30.4891C510.739 39.739 506.365 48.9992 501.901 58.2157C501.606 58.823 500.655 59.1581 499.956 59.5166C488.556 65.3672 477.155 71.2145 465.73 77.0161C464.682 77.548 463.474 77.7636 462.386 78.1116C466.265 62.0229 476.444 51.825 490.761 44.7432Z" fill="#00A850"/>
<path d="M469.094 99.427C469.724 100.323 470.954 101.767 470.738 102.947C468.094 117.382 465.182 131.767 462.473 146.19C461.754 150.017 461.49 153.93 460.594 157.986C459.082 146.704 462.678 135.862 464.616 124.8C466.073 116.483 467.553 108.169 469.094 99.427Z" fill="#0073BA"/>
<path d="M503.45 142.847C501.991 143.019 500.862 143.001 499.309 142.97C500.126 141.203 501.366 139.448 502.607 137.693C502.998 137.832 503.389 137.971 503.78 138.11C503.78 139.626 503.78 141.141 503.45 142.847Z" fill="#0073BA"/>
<path d="M454.575 89.9453C454.639 91.9365 454.32 93.9884 454.001 96.4368C451.113 95.2489 451.153 93.821 454.575 89.9453Z" fill="#0073BA"/>
<path d="M592.599 44.9412C592.248 46.2152 591.537 47.5458 590.497 48.9376C590.858 47.6652 591.549 46.3314 592.599 44.9412Z" fill="#0073BA"/>
<path d="M491.295 79.0188C491.043 79.1126 491.012 78.6396 491.006 78.4028C491.182 78.419 491.365 78.672 491.295 79.0188Z" fill="#0073BA"/>
<path d="M586.727 52.1338C586.893 52.4241 586.737 52.6344 586.342 52.8893C586.268 52.6876 586.369 52.3942 586.727 52.1338Z" fill="#0073BA"/>
</svg>
